<svg width="32" height="14" viewBox="0 0 32 14" fill="none" xmlns="http://www.w3.org/2000/svg">
<path d="M11.034 6.142C11.31 6.142 11.532 6.226 11.7 6.394C11.868 6.55 11.952 6.76 11.952 7.024V10.894C11.952 11.446 11.88 11.836 11.736 12.064C11.592 12.292 11.298 12.478 10.854 12.622C10.374 12.79 9.816 12.922 9.18 13.018C8.544 13.114 7.932 13.162 7.344 13.162C6.036 13.162 4.902 12.904 3.942 12.388C2.982 11.872 2.244 11.128 1.728 10.156C1.224 9.172 0.972 8.002 0.972 6.646C0.972 5.314 1.224 4.162 1.728 3.19C2.244 2.206 2.97 1.456 3.906 0.94C4.842 0.411999 5.946 0.147999 7.218 0.147999C8.91 0.147999 10.296 0.603999 11.376 1.516C11.52 1.648 11.622 1.78 11.682 1.912C11.754 2.044 11.79 2.2 11.79 2.38C11.79 2.644 11.718 2.866 11.574 3.046C11.43 3.226 11.256 3.316 11.052 3.316C10.92 3.316 10.8 3.298 10.692 3.262C10.584 3.214 10.458 3.142 10.314 3.046C9.786 2.674 9.294 2.416 8.838 2.272C8.382 2.116 7.866 2.038 7.29 2.038C5.982 2.038 4.992 2.428 4.32 3.208C3.66 3.976 3.33 5.122 3.33 6.646C3.33 9.766 4.698 11.326 7.434 11.326C8.25 11.326 9.066 11.212 9.882 10.984V7.798H7.848C7.56 7.798 7.332 7.726 7.164 7.582C7.008 7.438 6.93 7.234 6.93 6.97C6.93 6.706 7.008 6.502 7.164 6.358C7.332 6.214 7.56 6.142 7.848 6.142H11.034ZM15.2532 9.076C14.9052 9.076 14.6412 8.998 14.4612 8.842C14.2932 8.686 14.2092 8.47 14.2092 8.194C14.2092 7.918 14.2932 7.702 14.4612 7.546C14.6412 7.378 14.9052 7.294 15.2532 7.294H18.9612C19.3092 7.294 19.5672 7.378 19.7352 7.546C19.9152 7.702 20.0052 7.918 20.0052 8.194C20.0052 8.47 19.9152 8.686 19.7352 8.842C19.5672 8.998 19.3092 9.076 18.9612 9.076H15.2532ZM26.4143 13.162C25.4903 13.162 24.6143 13.042 23.7863 12.802C22.9703 12.55 22.3043 12.214 21.7883 11.794C21.5123 11.59 21.3743 11.302 21.3743 10.93C21.3743 10.678 21.4463 10.462 21.5903 10.282C21.7463 10.09 21.9263 9.994 22.1303 9.994C22.3463 9.994 22.5923 10.078 22.8683 10.246C23.3843 10.618 23.9243 10.888 24.4883 11.056C25.0523 11.224 25.6763 11.308 26.3603 11.308C27.2363 11.308 27.9083 11.158 28.3763 10.858C28.8443 10.546 29.0783 10.096 29.0783 9.508C29.0783 9.052 28.8563 8.704 28.4123 8.464C27.9803 8.212 27.2543 7.972 26.2343 7.744C25.1783 7.516 24.3203 7.252 23.6603 6.952C23.0003 6.652 22.5023 6.268 22.1663 5.8C21.8303 5.332 21.6623 4.738 21.6623 4.018C21.6623 3.274 21.8723 2.608 22.2923 2.02C22.7123 1.432 23.2943 0.975999 24.0383 0.651999C24.7943 0.315999 25.6403 0.147999 26.5763 0.147999C28.2923 0.147999 29.6903 0.603999 30.7703 1.516C30.9263 1.648 31.0343 1.78 31.0943 1.912C31.1663 2.032 31.2023 2.188 31.2023 2.38C31.2023 2.632 31.1243 2.854 30.9683 3.046C30.8243 3.226 30.6503 3.316 30.4463 3.316C30.3263 3.316 30.2123 3.298 30.1043 3.262C30.0083 3.226 29.8763 3.16 29.7083 3.064C29.2163 2.704 28.7363 2.44 28.2683 2.272C27.8123 2.092 27.2483 2.002 26.5763 2.002C25.7603 2.002 25.1123 2.17 24.6323 2.506C24.1643 2.83 23.9303 3.286 23.9303 3.874C23.9303 4.366 24.1403 4.744 24.5603 5.008C24.9803 5.272 25.6943 5.518 26.7023 5.746C27.7703 5.986 28.6343 6.256 29.2943 6.556C29.9663 6.844 30.4763 7.216 30.8243 7.672C31.1843 8.128 31.3643 8.698 31.3643 9.382C31.3643 10.126 31.1543 10.786 30.7343 11.362C30.3263 11.926 29.7443 12.37 28.9883 12.694C28.2443 13.006 27.3863 13.162 26.4143 13.162Z" fill="white"/>
</svg>
