<svg width="133" height="18" viewBox="0 0 133 18" fill="none" xmlns="http://www.w3.org/2000/svg">
<path d="M7.48828 9.2627V6.56445H14.3789C14.3848 6.65234 14.3877 6.74902 14.3877 6.85449C14.3936 6.95996 14.3965 7.11523 14.3965 7.32031C14.3965 9.53516 13.8105 11.2549 12.6387 12.4795C11.4727 13.6982 9.8291 14.3076 7.70801 14.3076C6.66504 14.3076 5.73633 14.1523 4.92188 13.8418C4.11328 13.5254 3.38965 13.0449 2.75098 12.4004C2.1416 11.7852 1.66699 11.0586 1.32715 10.2207C0.993164 9.37695 0.826172 8.49512 0.826172 7.5752C0.826172 6.61426 0.990234 5.73242 1.31836 4.92969C1.64648 4.12109 2.13574 3.39453 2.78613 2.75C3.43066 2.12305 4.16895 1.64844 5.00098 1.32617C5.83887 1.00391 6.74121 0.842773 7.70801 0.842773C8.96777 0.842773 10.0811 1.0918 11.0479 1.58984C12.0205 2.08789 12.8379 2.8291 13.5 3.81348L10.459 5.27246C10.0957 4.77441 9.68555 4.40527 9.22852 4.16504C8.77734 3.91895 8.27051 3.7959 7.70801 3.7959C6.65918 3.7959 5.83301 4.14746 5.22949 4.85059C4.62598 5.54785 4.32422 6.50293 4.32422 7.71582C4.32422 8.94043 4.62598 9.9043 5.22949 10.6074C5.83301 11.3105 6.65918 11.6621 7.70801 11.6621C8.59863 11.6621 9.33984 11.4453 9.93164 11.0117C10.5293 10.5723 10.8779 9.98926 10.9775 9.2627H7.48828ZM16.3389 14V5.12305H19.292V7.21484C19.5967 6.45312 20.0127 5.88184 20.54 5.50098C21.0674 5.12012 21.7061 4.92969 22.4561 4.92969C22.5791 4.92969 22.7021 4.93555 22.8252 4.94727C22.9541 4.95313 23.083 4.96484 23.2119 4.98242L22.9131 7.83008C22.7256 7.76562 22.541 7.71875 22.3594 7.68945C22.1777 7.66016 22.002 7.64551 21.832 7.64551C21.0703 7.64551 20.4814 7.87988 20.0654 8.34863C19.6553 8.81152 19.4502 9.4707 19.4502 10.3262V14H16.3389ZM31.1396 9.55273C31.1396 8.86133 30.9551 8.31348 30.5859 7.90918C30.2168 7.50488 29.7129 7.30273 29.0742 7.30273C28.4355 7.30273 27.9316 7.50488 27.5625 7.90918C27.1992 8.30762 27.0176 8.85547 27.0176 9.55273C27.0176 10.2441 27.2021 10.7891 27.5713 11.1875C27.9404 11.5859 28.4414 11.7852 29.0742 11.7852C29.7129 11.7852 30.2168 11.5859 30.5859 11.1875C30.9551 10.7891 31.1396 10.2441 31.1396 9.55273ZM33.8906 5.12305V14H31.0166V12.5586C30.6064 13.1738 30.1436 13.625 29.6279 13.9121C29.1182 14.1992 28.5176 14.3428 27.8262 14.3428C26.6426 14.3428 25.6963 13.9121 24.9873 13.0508C24.2783 12.1836 23.9238 11.0234 23.9238 9.57031C23.9238 8.12305 24.293 6.97461 25.0312 6.125C25.7754 5.26953 26.7744 4.8418 28.0283 4.8418C28.6963 4.8418 29.2705 4.98535 29.751 5.27246C30.2373 5.55371 30.6533 5.99023 30.999 6.58203V5.12305H33.8906ZM39.0498 9.58789C39.0498 10.2793 39.2285 10.8242 39.5859 11.2227C39.9492 11.6211 40.4473 11.8203 41.0801 11.8203C41.7129 11.8203 42.2109 11.6211 42.5742 11.2227C42.9434 10.8242 43.1279 10.2793 43.1279 9.58789C43.1279 8.89648 42.9463 8.35156 42.583 7.95312C42.2197 7.55469 41.7188 7.35547 41.0801 7.35547C40.4473 7.35547 39.9492 7.55469 39.5859 7.95312C39.2285 8.35156 39.0498 8.89648 39.0498 9.58789ZM36.2725 17.9199V5.12305H39.1553V6.61719C39.5537 6.01953 40.002 5.57422 40.5 5.28125C40.998 4.98828 41.5518 4.8418 42.1611 4.8418C43.4092 4.8418 44.4023 5.26953 45.1406 6.125C45.8789 6.97461 46.248 8.12891 46.248 9.58789C46.248 11.0059 45.8789 12.1543 45.1406 13.0332C44.4082 13.9062 43.4502 14.3428 42.2666 14.3428C41.5166 14.3428 40.9043 14.2051 40.4297 13.9297C39.9609 13.6543 39.542 13.2002 39.1729 12.5674C39.2021 12.7432 39.2227 12.957 39.2344 13.209C39.252 13.4609 39.2607 13.7715 39.2607 14.1406V17.9199H36.2725ZM48.1377 14V0.376953H51.2139V5.1582C51.2139 5.47461 51.2051 5.76758 51.1875 6.03711C51.1699 6.30664 51.1436 6.5498 51.1084 6.7666C51.501 6.10449 51.9639 5.61816 52.4971 5.30762C53.0303 4.99707 53.666 4.8418 54.4043 4.8418C54.9785 4.8418 55.4883 4.93555 55.9336 5.12305C56.3848 5.30469 56.751 5.56836 57.0322 5.91406C57.2666 6.21289 57.4336 6.57617 57.5332 7.00391C57.6328 7.43164 57.6826 8.07031 57.6826 8.91992V14H54.5449V9.24512C54.5449 8.53613 54.4277 8.02051 54.1934 7.69824C53.9648 7.37598 53.5957 7.21484 53.0859 7.21484C52.4355 7.21484 51.9609 7.45508 51.6621 7.93555C51.3633 8.41602 51.2139 9.19531 51.2139 10.2734V14H48.1377ZM59.8271 2.35449C59.8271 1.87988 59.9941 1.47559 60.3281 1.1416C60.668 0.807617 61.0752 0.640625 61.5498 0.640625C62.042 0.640625 62.4521 0.804688 62.7803 1.13281C63.1143 1.46094 63.2812 1.86816 63.2812 2.35449C63.2812 2.84082 63.1113 3.25391 62.7715 3.59375C62.4375 3.93359 62.0303 4.10352 61.5498 4.10352C61.0811 4.10352 60.6768 3.93066 60.3369 3.58496C59.9971 3.23926 59.8271 2.8291 59.8271 2.35449ZM59.9854 14V5.12305H63.123V14H59.9854ZM71.8945 8.04102C71.5898 7.77148 71.2969 7.5752 71.0156 7.45215C70.7344 7.3291 70.4385 7.26758 70.1279 7.26758C69.5068 7.26758 69.0117 7.47266 68.6426 7.88281C68.2793 8.29297 68.0977 8.84961 68.0977 9.55273C68.0977 10.2324 68.2881 10.7744 68.6689 11.1787C69.0498 11.583 69.5625 11.7852 70.207 11.7852C70.5234 11.7852 70.8193 11.7236 71.0947 11.6006C71.376 11.4717 71.6426 11.2754 71.8945 11.0117V13.7275C71.5195 13.9385 71.1445 14.0938 70.7695 14.1934C70.3945 14.293 70.0078 14.3428 69.6094 14.3428C68.2441 14.3428 67.1367 13.9062 66.2871 13.0332C65.4434 12.1543 65.0215 11 65.0215 9.57031C65.0215 8.18164 65.4521 7.04785 66.3135 6.16895C67.1807 5.28418 68.291 4.8418 69.6445 4.8418C70.0957 4.8418 70.5029 4.88574 70.8662 4.97363C71.2295 5.06152 71.5723 5.20215 71.8945 5.39551V8.04102ZM78.6357 13.2617L79.2861 10.8711C79.7432 11.2695 80.2441 11.5771 80.7891 11.7939C81.3398 12.0049 81.8936 12.1104 82.4502 12.1104C82.8428 12.1104 83.1416 12.0488 83.3467 11.9258C83.5518 11.7969 83.6543 11.6123 83.6543 11.3721C83.6543 10.9795 83.2412 10.6865 82.415 10.4932C82.1455 10.4287 81.9287 10.373 81.7646 10.3262C80.8271 10.0684 80.1445 9.73145 79.7168 9.31543C79.2949 8.89355 79.084 8.34863 79.084 7.68066C79.084 6.81934 79.4062 6.13086 80.0508 5.61523C80.7012 5.09961 81.5801 4.8418 82.6875 4.8418C83.2559 4.8418 83.833 4.90918 84.4189 5.04395C85.0107 5.17285 85.6143 5.375 86.2295 5.65039L85.5791 7.80371C85.1631 7.52246 84.7412 7.30859 84.3135 7.16211C83.8857 7.01562 83.458 6.94238 83.0303 6.94238C82.6729 6.94238 82.4033 6.99805 82.2217 7.10938C82.04 7.2207 81.9492 7.38184 81.9492 7.59277C81.9492 7.90918 82.3594 8.17578 83.1797 8.39258C83.3672 8.44531 83.5078 8.4834 83.6016 8.50684C84.6855 8.81738 85.4385 9.18359 85.8604 9.60547C86.2881 10.0215 86.502 10.5869 86.502 11.3018C86.502 12.21 86.1533 12.9453 85.4561 13.5078C84.7588 14.0645 83.8359 14.3428 82.6875 14.3428C81.9082 14.3428 81.1846 14.252 80.5166 14.0703C79.8486 13.8945 79.2217 13.625 78.6357 13.2617ZM88.6641 14V7.33789H87.3369V5.12305H88.6641V2.47754H91.749V5.12305H93.0762V7.33789H91.749V14H88.6641ZM103.649 5.12305V9.6582C103.649 10.6602 103.567 11.4043 103.403 11.8906C103.245 12.3711 102.976 12.7988 102.595 13.1738C102.202 13.5664 101.713 13.8594 101.127 14.0527C100.541 14.2461 99.8525 14.3428 99.0615 14.3428C98.2764 14.3428 97.5908 14.2461 97.0049 14.0527C96.4248 13.8594 95.9297 13.5664 95.5195 13.1738C95.1387 12.8105 94.8691 12.3857 94.7109 11.8994C94.5527 11.4072 94.4736 10.6602 94.4736 9.6582V5.12305H97.4619V9.86035C97.4619 10.6045 97.585 11.1436 97.8311 11.4775C98.0771 11.8057 98.4756 11.9697 99.0264 11.9697C99.583 11.9697 99.9814 11.8086 100.222 11.4863C100.468 11.1582 100.591 10.6162 100.591 9.86035V5.12305H103.649ZM112.685 9.57031C112.685 8.87891 112.5 8.33398 112.131 7.93555C111.768 7.53711 111.27 7.33789 110.637 7.33789C110.004 7.33789 109.506 7.53711 109.143 7.93555C108.779 8.33398 108.598 8.87891 108.598 9.57031C108.598 10.2676 108.776 10.8154 109.134 11.2139C109.497 11.6064 109.998 11.8027 110.637 11.8027C111.27 11.8027 111.768 11.6035 112.131 11.2051C112.5 10.8066 112.685 10.2617 112.685 9.57031ZM115.462 0.376953V14H112.579V12.5586C112.181 13.1562 111.732 13.6045 111.234 13.9033C110.736 14.1963 110.183 14.3428 109.573 14.3428C108.325 14.3428 107.332 13.9121 106.594 13.0508C105.855 12.1895 105.486 11.0293 105.486 9.57031C105.486 8.1582 105.853 7.01855 106.585 6.15137C107.323 5.27832 108.284 4.8418 109.468 4.8418C110.218 4.8418 110.827 4.97656 111.296 5.24609C111.771 5.51562 112.192 5.9668 112.562 6.59961C112.526 6.38867 112.5 6.15137 112.482 5.8877C112.465 5.61816 112.456 5.32812 112.456 5.01758V0.376953H115.462ZM117.712 2.35449C117.712 1.87988 117.879 1.47559 118.213 1.1416C118.553 0.807617 118.96 0.640625 119.435 0.640625C119.927 0.640625 120.337 0.804688 120.665 1.13281C120.999 1.46094 121.166 1.86816 121.166 2.35449C121.166 2.84082 120.996 3.25391 120.656 3.59375C120.322 3.93359 119.915 4.10352 119.435 4.10352C118.966 4.10352 118.562 3.93066 118.222 3.58496C117.882 3.23926 117.712 2.8291 117.712 2.35449ZM117.87 14V5.12305H121.008V14H117.87ZM129.709 9.58789C129.709 8.92578 129.542 8.4043 129.208 8.02344C128.874 7.64258 128.423 7.45215 127.854 7.45215C127.28 7.45215 126.826 7.64258 126.492 8.02344C126.164 8.4043 126 8.92578 126 9.58789C126 10.25 126.164 10.7715 126.492 11.1523C126.82 11.5273 127.274 11.7148 127.854 11.7148C128.429 11.7148 128.88 11.5273 129.208 11.1523C129.542 10.7715 129.709 10.25 129.709 9.58789ZM132.82 9.58789C132.82 10.2266 132.694 10.833 132.442 11.4072C132.196 11.9814 131.836 12.4971 131.361 12.9541C130.881 13.4111 130.342 13.7568 129.744 13.9912C129.152 14.2256 128.522 14.3428 127.854 14.3428C127.175 14.3428 126.536 14.2256 125.938 13.9912C125.347 13.7568 124.816 13.4111 124.348 12.9541C123.879 12.5088 123.521 11.999 123.275 11.4248C123.029 10.8447 122.906 10.2324 122.906 9.58789C122.906 8.9375 123.026 8.3252 123.267 7.75098C123.513 7.17676 123.873 6.66113 124.348 6.2041C124.811 5.75293 125.338 5.41309 125.93 5.18457C126.527 4.95605 127.169 4.8418 127.854 4.8418C128.54 4.8418 129.179 4.95605 129.771 5.18457C130.362 5.41309 130.893 5.75293 131.361 6.2041C131.842 6.66699 132.205 7.18555 132.451 7.75977C132.697 8.33398 132.82 8.94336 132.82 9.58789Z" fill="white"/>
</svg>
