<svg viewBox="0 0 16 16" fill="none" xmlns="http://www.w3.org/2000/svg">
<path d="M0.625 9.10938C0.279813 9.10938 0 8.82956 0 8.48438V4.39062C0 3.01213 1.1215 1.89062 2.5 1.89062H13.5C14.8785 1.89062 16 3.01213 16 4.39062V11.6094C16 12.9879 14.8785 14.1094 13.5 14.1094H2.5C1.1215 14.1094 0 12.9879 0 11.6094C0 11.2642 0.279813 10.9844 0.625 10.9844C0.970187 10.9844 1.25 11.2642 1.25 11.6094C1.25 12.2986 1.81075 12.8594 2.5 12.8594H13.5C14.1892 12.8594 14.75 12.2986 14.75 11.6094V4.52306L9.32016 7.89947C8.913 8.15263 8.4565 8.27922 8 8.27922C7.5435 8.27922 7.087 8.15263 6.67984 7.89947L1.25 4.52306V8.48438C1.25 8.82956 0.970187 9.10938 0.625 9.10938ZM7.33994 6.83794C7.74706 7.09109 8.25294 7.09113 8.66006 6.83794L14.2285 3.37538C14.0232 3.22769 13.7716 3.14062 13.5 3.14062H2.5C2.22841 3.14062 1.97678 3.22772 1.77153 3.37541L7.33994 6.83794Z" fill="white"/>
</svg>
