<svg viewBox="0 0 16 16" fill="none" xmlns="http://www.w3.org/2000/svg">
<path d="M11.3523 0H4.64775C2.08497 0 0 2.08497 0 4.64775V11.3523C0 13.915 2.08497 16 4.64775 16H11.3523C12.0917 16 12.7988 15.8313 13.4541 15.4985C14.0785 15.1814 14.6328 14.7182 15.057 14.159C15.2656 13.884 15.2118 13.4919 14.9368 13.2833C14.6619 13.0747 14.2698 13.1284 14.0612 13.4035C13.412 14.2592 12.4246 14.75 11.3523 14.75H4.64775C2.77422 14.75 1.25 13.2258 1.25 11.3523V4.64775C1.25 2.77422 2.77422 1.25 4.64775 1.25H11.3523C13.2258 1.25 14.75 2.77422 14.75 4.64775V10.7188C14.75 11.0639 15.0298 11.3438 15.375 11.3438C15.7202 11.3438 16 11.0639 16 10.7188V4.64775C16 2.08497 13.915 0 11.3523 0Z" fill="white"/>
<path d="M8 3.6875C5.62206 3.6875 3.6875 5.62206 3.6875 8C3.6875 10.3779 5.62206 12.3125 8 12.3125C10.3779 12.3125 12.3125 10.3779 12.3125 8C12.3125 5.62206 10.3779 3.6875 8 3.6875ZM8 11.0625C6.31134 11.0625 4.9375 9.68866 4.9375 8C4.9375 6.31134 6.31134 4.9375 8 4.9375C9.68866 4.9375 11.0625 6.31134 11.0625 8C11.0625 9.68866 9.68866 11.0625 8 11.0625Z" fill="white"/>
<path d="M12.375 4.25C12.7202 4.25 13 3.97018 13 3.625C13 3.27982 12.7202 3 12.375 3C12.0298 3 11.75 3.27982 11.75 3.625C11.75 3.97018 12.0298 4.25 12.375 4.25Z" fill="white"/>
</svg>
