<svg viewBox="0 0 16 16" fill="none" xmlns="http://www.w3.org/2000/svg">
<path d="M11.347 4.61934C11.1651 4.43843 10.8911 4.38712 10.656 4.48977L3.7185 7.52102C3.48622 7.62252 3.33822 7.85431 3.34391 8.10771C3.34956 8.36118 3.50778 8.58609 3.74438 8.67709L6.32884 9.67112L7.31066 12.2239C7.46472 12.6241 7.80319 12.6562 7.90678 12.6562C7.90744 12.6562 7.90815 12.6562 7.90884 12.6562C8.15756 12.6552 8.382 12.5068 8.48031 12.2784L11.4803 5.30962C11.5817 5.07396 11.5289 4.80027 11.347 4.61934ZM7.93875 10.375C7.748 9.87899 7.54484 9.35071 7.39578 8.96315C7.33231 8.79809 7.20187 8.66762 7.03681 8.60415L5.614 8.0569L9.70643 6.26877L7.93875 10.375Z" fill="white"/>
<path d="M13.6569 2.34313C12.1458 0.832156 10.1369 0 8 0C5.86312 0 3.85416 0.832156 2.34313 2.34313C0.832156 3.85416 0 5.86312 0 8C0 10.1369 0.832156 12.1458 2.34313 13.6569C3.85416 15.1678 5.86312 16 8 16C9.46291 16 10.8943 15.6013 12.1394 14.8471C12.4347 14.6682 12.529 14.2839 12.3502 13.9887C12.1713 13.6934 11.787 13.5991 11.4918 13.7779C10.442 14.4139 9.23453 14.75 8 14.75C4.27803 14.75 1.25 11.722 1.25 8C1.25 4.27803 4.27803 1.25 8 1.25C11.722 1.25 14.75 4.27803 14.75 8C14.75 9.33091 14.3542 10.6264 13.6054 11.7464C13.4136 12.0333 13.4907 12.4215 13.7776 12.6133C14.0646 12.8052 14.4528 12.7281 14.6446 12.4411C15.5313 11.1148 16 9.57906 16 8C16 5.86312 15.1678 3.85416 13.6569 2.34313Z" fill="white"/>
</svg>
